# xmcd CD database file
#
# Track frame offsets:
#	150
#	14853
#	39282
#	59599
#	86650
#	102442
#	123945
#	154319
#
# Disc length: 2299 seconds
#
# Revision: 0
# Processed by: cddbd v1.5.2PL0 Copyright (c) Steve Scherf et al.
# Submitted via: CDex 1.70beta2
#
DISCID=6908f908
DTITLE=Pekka Lehti and Outo Voima - Sohjo
DYEAR=2003
DGENRE=Jazz
TTITLE0=Zen
TTITLE1=Snadina
TTITLE2=Artsi
TTITLE3=Ite
TTITLE4=Jenkka skitzofrenia
TTITLE5=Skrubu
TTITLE6=Kumma
TTITLE7=Kultaranta
EXTD=YEAR: 2003
EXTT0=
EXTT1=
EXTT2=
EXTT3=
EXTT4=
EXTT5=
EXTT6=
EXTT7=
PLAYORDER=
